<svg id="visual" viewBox="0 0 900 600" width="900" height="600" xmlns="http://www.w3.org/2000/svg" xmlns:xlink="http://www.w3.org/1999/xlink" version="1.1"><path d="M0 397L21.5 391.2C43 385.3 86 373.7 128.8 379.5C171.7 385.3 214.3 408.7 257.2 420.7C300 432.7 343 433.3 385.8 431.7C428.7 430 471.3 426 514.2 428C557 430 600 438 642.8 429.8C685.7 421.7 728.3 397.3 771.2 388.7C814 380 857 387 878.5 390.5L900 394L900 601L878.5 601C857 601 814 601 771.2 601C728.3 601 685.7 601 642.8 601C600 601 557 601 514.2 601C471.3 601 428.7 601 385.8 601C343 601 300 601 257.2 601C214.3 601 171.7 601 128.8 601C86 601 43 601 21.5 601L0 601Z" fill="#ff2e00"></path><path d="M0 416L21.5 414.5C43 413 86 410 128.8 416.3C171.7 422.7 214.3 438.3 257.2 439.7C300 441 343 428 385.8 425.3C428.7 422.7 471.3 430.3 514.2 436.3C557 442.3 600 446.7 642.8 441.3C685.7 436 728.3 421 771.2 416.5C814 412 857 418 878.5 421L900 424L900 601L878.5 601C857 601 814 601 771.2 601C728.3 601 685.7 601 642.8 601C600 601 557 601 514.2 601C471.3 601 428.7 601 385.8 601C343 601 300 601 257.2 601C214.3 601 171.7 601 128.8 601C86 601 43 601 21.5 601L0 601Z" fill="#f8132e"></path><path d="M0 447L21.5 449.5C43 452 86 457 128.8 459.8C171.7 462.7 214.3 463.3 257.2 469.3C300 475.3 343 486.7 385.8 484.3C428.7 482 471.3 466 514.2 468.2C557 470.3 600 490.7 642.8 495.7C685.7 500.7 728.3 490.3 771.2 483.7C814 477 857 474 878.5 472.5L900 471L900 601L878.5 601C857 601 814 601 771.2 601C728.3 601 685.7 601 642.8 601C600 601 557 601 514.2 601C471.3 601 428.7 601 385.8 601C343 601 300 601 257.2 601C214.3 601 171.7 601 128.8 601C86 601 43 601 21.5 601L0 601Z" fill="#ec0347"></path><path d="M0 532L21.5 523.7C43 515.3 86 498.7 128.8 492.5C171.7 486.3 214.3 490.7 257.2 497.5C300 504.3 343 513.7 385.8 517.5C428.7 521.3 471.3 519.7 514.2 519.2C557 518.7 600 519.3 642.8 523.2C685.7 527 728.3 534 771.2 529.5C814 525 857 509 878.5 501L900 493L900 601L878.5 601C857 601 814 601 771.2 601C728.3 601 685.7 601 642.8 601C600 601 557 601 514.2 601C471.3 601 428.7 601 385.8 601C343 601 300 601 257.2 601C214.3 601 171.7 601 128.8 601C86 601 43 601 21.5 601L0 601Z" fill="#db115a"></path><path d="M0 537L21.5 538C43 539 86 541 128.8 545.3C171.7 549.7 214.3 556.3 257.2 553.5C300 550.7 343 538.3 385.8 533.8C428.7 529.3 471.3 532.7 514.2 537.3C557 542 600 548 642.8 552.8C685.7 557.7 728.3 561.3 771.2 563.7C814 566 857 567 878.5 567.5L900 568L900 601L878.5 601C857 601 814 601 771.2 601C728.3 601 685.7 601 642.8 601C600 601 557 601 514.2 601C471.3 601 428.7 601 385.8 601C343 601 300 601 257.2 601C214.3 601 171.7 601 128.8 601C86 601 43 601 21.5 601L0 601Z" fill="#c62368"></path></svg>