<svg id="visual" viewBox="0 0 900 600" width="900" height="600" xmlns="http://www.w3.org/2000/svg" xmlns:xlink="http://www.w3.org/1999/xlink" version="1.1"><path d="M0 283L21.5 275.8C43 268.7 86 254.3 128.8 259.8C171.7 265.3 214.3 290.7 257.2 289.2C300 287.7 343 259.3 385.8 264.5C428.7 269.7 471.3 308.3 514.2 318C557 327.7 600 308.3 642.8 302.5C685.7 296.7 728.3 304.3 771.2 304.2C814 304 857 296 878.5 292L900 288L900 0L878.5 0C857 0 814 0 771.2 0C728.3 0 685.7 0 642.8 0C600 0 557 0 514.2 0C471.3 0 428.7 0 385.8 0C343 0 300 0 257.2 0C214.3 0 171.7 0 128.8 0C86 0 43 0 21.5 0L0 0Z" fill="#ff2e00"></path><path d="M0 197L21.5 193.7C43 190.3 86 183.7 128.8 190.3C171.7 197 214.3 217 257.2 232.8C300 248.7 343 260.3 385.8 250.5C428.7 240.7 471.3 209.3 514.2 198.5C557 187.7 600 197.3 642.8 200.3C685.7 203.3 728.3 199.7 771.2 208.3C814 217 857 238 878.5 248.5L900 259L900 0L878.5 0C857 0 814 0 771.2 0C728.3 0 685.7 0 642.8 0C600 0 557 0 514.2 0C471.3 0 428.7 0 385.8 0C343 0 300 0 257.2 0C214.3 0 171.7 0 128.8 0C86 0 43 0 21.5 0L0 0Z" fill="#f50b37"></path><path d="M0 221L21.5 203.3C43 185.7 86 150.3 128.8 139.2C171.7 128 214.3 141 257.2 147.8C300 154.7 343 155.3 385.8 153C428.7 150.7 471.3 145.3 514.2 144.3C557 143.3 600 146.7 642.8 153.3C685.7 160 728.3 170 771.2 168C814 166 857 152 878.5 145L900 138L900 0L878.5 0C857 0 814 0 771.2 0C728.3 0 685.7 0 642.8 0C600 0 557 0 514.2 0C471.3 0 428.7 0 385.8 0C343 0 300 0 257.2 0C214.3 0 171.7 0 128.8 0C86 0 43 0 21.5 0L0 0Z" fill="#e10b54"></path><path d="M0 53L21.5 57.5C43 62 86 71 128.8 72.5C171.7 74 214.3 68 257.2 73.5C300 79 343 96 385.8 107.3C428.7 118.7 471.3 124.3 514.2 121.7C557 119 600 108 642.8 97.3C685.7 86.7 728.3 76.3 771.2 76C814 75.7 857 85.3 878.5 90.2L900 95L900 0L878.5 0C857 0 814 0 771.2 0C728.3 0 685.7 0 642.8 0C600 0 557 0 514.2 0C471.3 0 428.7 0 385.8 0C343 0 300 0 257.2 0C214.3 0 171.7 0 128.8 0C86 0 43 0 21.5 0L0 0Z" fill="#c62368"></path></svg>