<svg width="604" height="604" viewBox="0 0 604 604" fill="none" xmlns="http://www.w3.org/2000/svg">
<circle cx="302" cy="302" r="302" fill="#03071E"/>
<path d="M270.48 254.72C270.053 259.733 269.733 264.587 269.52 269.28C269.413 273.973 269.36 277.547 269.36 280C269.36 282.133 269.413 284.213 269.52 286.24C269.627 288.267 269.733 289.92 269.84 291.2H266.16C264.987 282.88 263.067 276.32 260.4 271.52C257.84 266.72 254.64 263.36 250.8 261.44C247.067 259.413 242.907 258.4 238.32 258.4H234C231.12 258.4 228.88 258.667 227.28 259.2C225.787 259.627 224.773 260.587 224.24 262.08C223.813 263.573 223.6 265.92 223.6 269.12V353.6C223.6 356.693 223.813 359.04 224.24 360.64C224.773 362.133 225.787 363.147 227.28 363.68C228.88 364.107 231.12 364.32 234 364.32H240.56C244.72 364.32 248.667 363.253 252.4 361.12C256.24 358.88 259.653 355.147 262.64 349.92C265.627 344.587 267.867 337.387 269.36 328.32H273.04C272.72 331.947 272.56 336.64 272.56 342.4C272.56 344.96 272.613 348.587 272.72 353.28C272.827 357.973 273.147 362.88 273.68 368C268.24 367.787 262.107 367.68 255.28 367.68C248.453 367.573 242.373 367.52 237.04 367.52C234.267 367.52 230.747 367.52 226.48 367.52C222.213 367.52 217.573 367.573 212.56 367.68C207.547 367.68 202.48 367.733 197.36 367.84C192.24 367.84 187.44 367.893 182.96 368V364.8C186.267 364.587 188.72 364.16 190.32 363.52C192.027 362.88 193.147 361.6 193.68 359.68C194.32 357.76 194.64 354.88 194.64 351.04V271.68C194.64 267.733 194.32 264.853 193.68 263.04C193.147 261.12 192.027 259.84 190.32 259.2C188.72 258.453 186.267 258.027 182.96 257.92V254.72C187.547 254.827 192.347 254.933 197.36 255.04C202.48 255.04 207.493 255.093 212.4 255.2C217.413 255.2 222.053 255.2 226.32 255.2C230.693 255.2 234.267 255.2 237.04 255.2C241.947 255.2 247.493 255.2 253.68 255.2C259.973 255.093 265.573 254.933 270.48 254.72ZM246.32 309.44C246.32 309.44 246.32 309.973 246.32 311.04C246.32 312.107 246.32 312.64 246.32 312.64H218.8C218.8 312.64 218.8 312.107 218.8 311.04C218.8 309.973 218.8 309.44 218.8 309.44H246.32ZM250.96 288.32C250.533 294.4 250.32 299.04 250.32 302.24C250.427 305.44 250.48 308.373 250.48 311.04C250.48 313.707 250.533 316.64 250.64 319.84C250.747 323.04 251.013 327.68 251.44 333.76H247.76C247.227 329.92 246.107 326.4 244.4 323.2C242.693 320 240.4 317.44 237.52 315.52C234.64 313.6 231.12 312.64 226.96 312.64V309.44C230.053 309.44 232.773 308.8 235.12 307.52C237.467 306.133 239.44 304.373 241.04 302.24C242.747 300.107 244.133 297.813 245.2 295.36C246.267 292.907 246.96 290.56 247.28 288.32H250.96ZM359.856 252.48C371.59 252.48 381.83 254.773 390.576 259.36C399.323 263.947 406.096 270.56 410.896 279.2C415.803 287.733 418.256 298.133 418.256 310.4C418.256 322.347 415.75 332.8 410.736 341.76C405.83 350.72 398.95 357.707 390.096 362.72C381.243 367.733 371.11 370.24 359.696 370.24C348.07 370.24 337.83 367.947 328.976 363.36C320.23 358.773 313.403 352.16 308.496 343.52C303.696 334.88 301.296 324.48 301.296 312.32C301.296 300.373 303.803 289.92 308.816 280.96C313.936 272 320.87 265.013 329.616 260C338.363 254.987 348.443 252.48 359.856 252.48ZM359.216 255.36C353.563 255.36 348.656 257.76 344.496 262.56C340.336 267.36 337.083 273.973 334.736 282.4C332.496 290.827 331.376 300.587 331.376 311.68C331.376 322.987 332.656 332.853 335.216 341.28C337.883 349.6 341.403 356.053 345.776 360.64C350.15 365.12 355.003 367.36 360.336 367.36C365.99 367.36 370.896 364.96 375.056 360.16C379.323 355.36 382.576 348.747 384.816 340.32C387.056 331.787 388.176 322.027 388.176 311.04C388.176 299.627 386.896 289.76 384.336 281.44C381.776 273.12 378.256 266.72 373.776 262.24C369.403 257.653 364.55 255.36 359.216 255.36Z" fill="#FAA307"/>
</svg>
