<svg width="479" height="467" viewBox="0 0 479 467" fill="none" xmlns="http://www.w3.org/2000/svg">
<path fill-rule="evenodd" clip-rule="evenodd" d="M241.275 43.3195C279.452 39.023 310.569 -9.43507 347.351 1.6412C382.081 12.0998 383.031 63.5326 404.74 92.5447C424.454 118.891 457.477 134.852 469.838 165.335C482.337 196.159 480.235 231.2 474.228 263.908C468.404 295.623 456.068 326.505 435.65 351.49C416.195 375.295 384.677 384.257 360.421 403.166C335.303 422.745 320.463 458.367 289.404 465.493C258.421 472.602 227.677 452.934 198.507 440.315C172.583 429.1 151.373 410.906 127.686 395.532C102.909 379.45 70.8337 371.713 54.714 346.987C38.5715 322.226 48.0635 288.96 39.7287 260.613C29.5594 226.027 1.10292 197.275 0.100312 161.244C-0.961561 123.083 6.14594 79.3337 33.9551 53.1274C62.1493 26.5582 106.61 26.2083 145.34 24.3761C178.261 22.8186 208.524 47.0053 241.275 43.3195Z" fill="#343333" fill-opacity="0.32"/>
</svg>
